# xmcd
#
# Track frame offsets: 
#        150
#        19947
#        42405
#        58537
#        94901
#        121514
#        142069
#        163859
#
# Disc length: 2440 seconds
#
# Revision: 0
# Processed by: cddbd v1.5.2PL0 Copyright (c) Steve Scherf et al.
# Submitted via: ExactAudioCopyFreeDBPlugin 1.0
#
DISCID=6a098608
DTITLE=Julian Sas - Stand Your Ground
DYEAR=2019
DGENRE=Blues
TTITLE0=Runnin' For The Money
TTITLE1=Don't Let Me Down
TTITLE2=Stand Your Ground
TTITLE3=Anything
TTITLE4=Howlin' Wind
TTITLE5=Get On Up
TTITLE6=Tell Me Why
TTITLE7=These 18 Wheels
EXTD=
EXTT0=
EXTT1=
EXTT2=
EXTT3=
EXTT4=
EXTT5=
EXTT6=
EXTT7=
PLAYORDER=
